<svg xmlns="http://www.w3.org/2000/svg" viewBox="0 0 64 64">
  <defs>
    <linearGradient id="bg" x1="0%" y1="0%" x2="100%" y2="100%">
      <stop offset="0%" stop-color="#22d3ee" />
      <stop offset="100%" stop-color="#6366f1" />
    </linearGradient>
  </defs>
  <rect width="64" height="64" rx="14" fill="url(#bg)" />
  <path
    d="M14 37.5c0-1.6 1.1-3 2.7-3.4l6.2-1.7 5.1-8.6c.8-1.4 2.3-2.3 3.9-2.3h0c1.6 0 3.1.9 3.9 2.3l5.1 8.6 6.2 1.7c1.6.4 2.7 1.8 2.7 3.4v6.5c0 1.9-1.6 3.5-3.5 3.5h-1.2c-1.1 0-2-.9-2-2v-1c0-2.8-2.2-5-5-5h-12c-2.8 0-5 2.2-5 5v1c0 1.1-.9 2-2 2h-1.2c-1.9 0-3.5-1.6-3.5-3.5v-6.5Z"
    fill="#0f172a"
  />
  <circle cx="24.5" cy="45.5" r="3.5" fill="#f8fafc" />
  <circle cx="39.5" cy="45.5" r="3.5" fill="#f8fafc" />
</svg>
